TITLE ""
FILE "P1Q_t_1269-1277.mp3" MP3
  TRACK 01 AUDIO
    TITLE "P1Q_t_1269-1277_01"
    INDEX 01 00:00:00
  TRACK 02 AUDIO
    TITLE "P1Q_t_1269-1277_02"
    INDEX 01 00:00:75
  TRACK 03 AUDIO
    TITLE "P1Q_t_1269-1277_03"
    INDEX 01 00:01:22
  TRACK 04 AUDIO
    TITLE "P1Q_t_1269-1277_04"
    INDEX 01 00:02:21
  TRACK 05 AUDIO
    TITLE "P1Q_t_1269-1277_05"
    INDEX 01 00:02:43
  TRACK 06 AUDIO
    TITLE "P1Q_t_1269-1277_06"
    INDEX 01 00:06:64
  TRACK 07 AUDIO
    TITLE "P1Q_t_1269-1277_07"
    INDEX 01 00:07:34
  TRACK 08 AUDIO
    TITLE "P1Q_t_1269-1277_08"
    INDEX 01 00:08:35
  TRACK 09 AUDIO
    TITLE "P1Q_t_1269-1277_09"
    INDEX 01 00:08:57
  TRACK 10 AUDIO
    TITLE "P1Q_t_1269-1277_10"
    INDEX 01 00:10:46
  TRACK 11 AUDIO
    TITLE "P1Q_t_1269-1277_11"
    INDEX 01 00:10:66
  TRACK 12 AUDIO
    TITLE "P1Q_t_1269-1277_12"
    INDEX 01 00:15:14
  TRACK 13 AUDIO
    TITLE "P1Q_t_1269-1277_13"
    INDEX 01 00:15:59
  TRACK 14 AUDIO
    TITLE "P1Q_t_1269-1277_14"
    INDEX 01 00:17:07
  TRACK 15 AUDIO
    TITLE "P1Q_t_1269-1277_15"
    INDEX 01 00:17:50
  TRACK 16 AUDIO
    TITLE "P1Q_t_1269-1277_16"
    INDEX 01 00:18:61
  TRACK 17 AUDIO
    TITLE "P1Q_t_1269-1277_17"
    INDEX 01 00:19:06
  TRACK 18 AUDIO
    TITLE "P1Q_t_1269-1277_18"
    INDEX 01 00:20:23
  TRACK 19 AUDIO
    TITLE "P1Q_t_1269-1277_19"
    INDEX 01 00:20:42
  TRACK 20 AUDIO
    TITLE "P1Q_t_1269-1277_20"
    INDEX 01 00:25:10
  TRACK 21 AUDIO
    TITLE "P1Q_t_1269-1277_21"
    INDEX 01 00:25:55
  TRACK 22 AUDIO
    TITLE "P1Q_t_1269-1277_22"
    INDEX 01 00:27:01
  TRACK 23 AUDIO
    TITLE "P1Q_t_1269-1277_23"
    INDEX 01 00:27:23
  TRACK 24 AUDIO
    TITLE "P1Q_t_1269-1277_24"
    INDEX 01 00:28:30
  TRACK 25 AUDIO
    TITLE "P1Q_t_1269-1277_25"
    INDEX 01 00:28:50
  TRACK 26 AUDIO
    TITLE "P1Q_t_1269-1277_26"
    INDEX 01 00:33:51
  TRACK 27 AUDIO
    TITLE "P1Q_t_1269-1277_27"
    INDEX 01 00:34:19
  TRACK 28 AUDIO
    TITLE "P1Q_t_1269-1277_28"
    INDEX 01 00:35:30
  TRACK 29 AUDIO
    TITLE "P1Q_t_1269-1277_29"
    INDEX 01 00:35:50
  TRACK 30 AUDIO
    TITLE "P1Q_t_1269-1277_30"
    INDEX 01 00:36:71
  TRACK 31 AUDIO
    TITLE "P1Q_t_1269-1277_31"
    INDEX 01 00:37:15
  TRACK 32 AUDIO
    TITLE "P1Q_t_1269-1277_32"
    INDEX 01 00:41:19
  TRACK 33 AUDIO
    TITLE "P1Q_t_1269-1277_33"
    INDEX 01 00:41:66
  TRACK 34 AUDIO
    TITLE "P1Q_t_1269-1277_34"
    INDEX 01 00:43:12
  TRACK 35 AUDIO
    TITLE "P1Q_t_1269-1277_35"
    INDEX 01 00:43:34
  TRACK 36 AUDIO
    TITLE "P1Q_t_1269-1277_36"
    INDEX 01 00:45:03
  TRACK 37 AUDIO
    TITLE "P1Q_t_1269-1277_37"
    INDEX 01 00:45:23
  TRACK 38 AUDIO
    TITLE "P1Q_t_1269-1277_38"
    INDEX 01 00:49:36
  TRACK 39 AUDIO
    TITLE "P1Q_t_1269-1277_39"
    INDEX 01 00:50:08
  TRACK 40 AUDIO
    TITLE "P1Q_t_1269-1277_40"
    INDEX 01 00:51:25
  TRACK 41 AUDIO
    TITLE "P1Q_t_1269-1277_41"
    INDEX 01 00:51:47
  TRACK 42 AUDIO
    TITLE "P1Q_t_1269-1277_42"
    INDEX 01 00:53:67
  TRACK 43 AUDIO
    TITLE "P1Q_t_1269-1277_43"
    INDEX 01 00:54:14
  TRACK 44 AUDIO
    TITLE "P1Q_t_1269-1277_44"
    INDEX 01 00:58:35
  TRACK 45 AUDIO
    TITLE "P1Q_t_1269-1277_45"
    INDEX 01 00:59:05
  TRACK 46 AUDIO
    TITLE "P1Q_t_1269-1277_46"
    INDEX 01 01:00:28
  TRACK 47 AUDIO
    TITLE "P1Q_t_1269-1277_47"
    INDEX 01 01:00:48
  TRACK 48 AUDIO
    TITLE "P1Q_t_1269-1277_48"
    INDEX 01 01:04:44
  TRACK 49 AUDIO
    TITLE "P1Q_t_1269-1277_49"
    INDEX 01 01:04:63
  TRACK 50 AUDIO
    TITLE "P1Q_t_1269-1277_50"
    INDEX 01 01:09:41
  TRACK 51 AUDIO
    TITLE "P1Q_t_1269-1277_51"
    INDEX 01 01:10:11
  TRACK 52 AUDIO
    TITLE "P1Q_t_1269-1277_52"
    INDEX 01 01:11:44
  TRACK 53 AUDIO
    TITLE "P1Q_t_1269-1277_53"
    INDEX 01 01:11:63
  TRACK 54 AUDIO
    TITLE "P1Q_t_1269-1277_54"
    INDEX 01 01:15:49
  TRACK 55 AUDIO
    TITLE "P1Q_t_1269-1277_55"
    INDEX 01 01:15:69
  TRACK 56 AUDIO
    TITLE "P1Q_t_1269-1277_56"
    INDEX 01 01:19:39
